<svg id="svg" version="1.1" xmlns="http://www.w3.org/2000/svg" xmlns:xlink="http://www.w3.org/1999/xlink" width="400" height="435.60209424083774" viewBox="0, 0, 400,435.60209424083774"><g id="svgg"><path id="path0" d="M142.000 43.836 C 135.947 45.710,131.120 50.444,129.318 56.277 C 128.184 59.947,128.210 154.651,129.346 158.000 C 135.563 176.321,161.218 174.617,164.794 155.645 C 165.527 151.758,165.334 59.881,164.587 57.014 C 161.992 47.051,151.462 40.908,142.000 43.836 M238.600 43.674 C 232.944 45.634,228.861 49.103,226.481 53.971 L 225.000 57.000 225.000 106.800 C 225.000 155.417,225.019 156.648,225.789 158.600 C 228.455 165.362,232.517 169.144,238.702 170.622 C 248.107 172.870,257.155 167.739,260.443 158.293 L 261.589 155.000 261.590 107.200 C 261.591 55.530,261.680 57.760,259.418 53.142 C 255.907 45.977,245.549 41.266,238.600 43.674 M188.274 90.196 C 173.556 96.257,172.717 117.462,186.929 124.154 C 205.847 133.063,222.683 108.990,207.844 94.251 C 202.978 89.418,194.453 87.651,188.274 90.196 M72.100 259.861 C 71.384 260.156,71.364 384.004,72.080 384.720 C 72.587 385.227,87.711 385.439,88.967 384.957 C 89.537 384.739,89.600 381.602,89.600 353.586 C 89.600 325.820,89.668 322.389,90.229 321.829 C 91.075 320.982,156.130 320.856,156.676 321.700 C 156.854 321.975,157.090 336.330,157.200 353.600 L 157.400 385.000 165.799 385.108 C 173.343 385.206,174.249 385.147,174.699 384.532 C 175.434 383.528,175.434 261.272,174.699 260.268 C 174.249 259.653,173.343 259.594,165.799 259.692 L 157.400 259.800 157.297 287.762 C 157.224 307.609,157.065 315.881,156.748 316.262 C 156.381 316.705,150.464 316.800,123.400 316.800 C 96.336 316.800,90.419 316.705,90.052 316.262 C 89.735 315.881,89.576 307.609,89.503 287.762 L 89.400 259.800 81.000 259.728 C 76.380 259.688,72.375 259.748,72.100 259.861 M262.200 259.977 C 253.200 261.134,246.119 263.819,238.394 269.006 C 222.307 279.808,213.823 292.435,210.977 309.809 C 209.730 317.421,210.279 333.040,212.003 339.000 C 217.135 356.745,225.591 367.805,241.319 377.342 C 259.157 388.158,286.948 387.815,304.405 376.563 C 323.467 364.277,332.839 347.391,333.467 324.200 C 334.054 302.534,327.392 286.693,312.549 274.460 C 308.212 270.885,304.970 268.400,304.644 268.400 C 304.518 268.400,303.238 267.680,301.800 266.800 C 300.362 265.920,299.104 265.200,299.004 265.200 C 298.904 265.200,297.872 264.766,296.711 264.235 C 294.233 263.102,289.423 261.587,285.200 260.610 C 281.857 259.836,266.572 259.416,262.200 259.977 M280.294 264.441 C 281.342 264.683,282.920 265.060,283.800 265.278 C 295.188 268.105,305.478 278.016,309.596 290.122 C 314.570 304.747,314.676 338.398,309.796 353.774 C 303.528 373.521,283.663 384.473,262.608 379.789 C 242.237 375.257,230.385 353.988,230.406 322.000 C 230.427 290.421,242.254 269.554,263.000 264.492 C 265.239 263.945,277.988 263.908,280.294 264.441 " stroke="none" fill="#5aa0f7" fill-rule="evenodd"></path><path id="path1" d="M0.000 217.800 L 0.000 435.600 200.000 435.600 L 400.000 435.600 400.000 217.800 L 400.000 0.000 200.000 0.000 L 0.000 0.000 0.000 217.800 M153.278 43.118 C 153.543 43.383,154.015 43.600,154.326 43.600 C 157.856 43.600,164.665 51.617,166.160 57.532 C 167.139 61.405,167.130 151.204,166.150 155.651 C 161.723 175.752,135.599 177.780,128.174 158.600 C 126.977 155.508,126.963 59.066,128.159 55.600 C 128.576 54.390,129.027 53.310,129.160 53.200 C 129.293 53.090,129.671 52.463,130.001 51.807 C 131.620 48.584,138.261 43.594,142.200 42.641 C 143.837 42.245,152.790 42.630,153.278 43.118 M251.800 44.156 C 255.802 46.268,259.648 50.088,260.893 53.187 C 262.954 58.321,262.800 53.986,262.800 106.876 C 262.800 133.653,262.643 155.976,262.451 156.481 C 262.259 156.987,261.883 158.120,261.614 159.000 C 258.010 170.820,242.045 175.892,231.600 168.535 C 228.446 166.313,224.800 161.235,224.800 159.063 C 224.800 158.724,224.643 158.350,224.452 158.232 C 223.583 157.695,223.451 150.898,223.446 106.600 C 223.440 62.445,223.569 55.914,224.453 55.367 C 224.644 55.249,224.800 54.870,224.800 54.525 C 224.800 53.783,227.744 49.349,228.999 48.200 C 235.603 42.155,244.887 40.508,251.800 44.156 M200.200 88.578 C 217.122 92.640,219.921 115.932,204.533 124.630 C 200.820 126.729,191.117 127.884,190.164 126.341 C 190.048 126.153,189.504 126.000,188.955 126.000 C 185.819 126.000,179.149 120.162,177.085 115.610 C 174.973 110.955,174.854 104.071,176.811 99.800 C 179.309 94.349,183.450 90.848,190.200 88.480 C 191.478 88.032,198.197 88.098,200.200 88.578 M90.451 259.061 C 90.900 259.603,91.036 264.805,91.200 287.761 L 91.400 315.800 123.490 315.902 L 155.579 316.005 155.690 287.864 C 155.780 264.721,155.898 259.605,156.349 259.061 C 156.978 258.303,174.441 258.059,175.600 258.792 C 176.440 259.323,176.520 384.839,175.681 385.680 C 174.704 386.658,157.982 386.637,156.770 385.657 L 155.800 384.871 155.693 353.835 L 155.586 322.800 123.393 322.800 L 91.200 322.800 91.200 353.771 C 91.200 387.451,91.319 385.654,89.051 386.223 C 87.113 386.709,71.746 386.221,71.060 385.651 C 70.261 384.986,70.019 260.660,70.814 259.174 C 71.405 258.070,89.542 257.966,90.451 259.061 M283.600 259.136 C 285.470 259.395,287.450 259.761,288.000 259.948 C 288.550 260.134,290.080 260.604,291.400 260.990 C 294.592 261.925,301.004 264.777,303.800 266.505 C 309.769 270.196,318.539 277.652,321.600 281.638 C 322.150 282.355,322.786 283.134,323.014 283.370 C 326.249 286.731,333.200 301.883,333.200 305.575 C 333.200 306.007,333.447 307.315,333.748 308.480 C 335.437 315.011,335.446 328.401,333.766 335.332 C 333.454 336.615,333.199 338.055,333.198 338.532 C 333.195 339.360,331.186 346.117,330.442 347.800 C 324.337 361.600,316.616 370.414,303.667 378.363 C 289.887 386.823,268.791 388.935,251.781 383.558 C 233.150 377.669,215.111 358.688,211.143 340.800 C 209.269 332.352,209.132 331.064,209.118 321.800 C 209.101 310.670,209.448 308.151,212.184 299.585 C 216.426 286.304,226.270 274.823,241.114 265.846 C 243.157 264.611,245.008 263.600,245.228 263.600 C 245.448 263.600,246.027 263.349,246.514 263.043 C 247.381 262.498,251.817 260.934,255.000 260.051 C 255.880 259.807,258.028 259.423,259.773 259.197 C 261.518 258.972,263.039 258.694,263.154 258.579 C 263.532 258.202,280.127 258.653,283.600 259.136 M263.200 265.787 C 256.419 267.274,252.526 269.458,247.198 274.761 C 240.423 281.504,237.757 286.354,234.200 298.400 C 230.067 312.399,231.346 341.909,236.601 353.800 C 238.761 358.688,239.539 360.178,241.427 363.035 C 244.968 368.395,254.367 376.800,256.820 376.800 C 257.035 376.800,257.523 376.967,257.905 377.171 C 261.756 379.228,281.182 380.190,283.377 378.431 C 283.610 378.245,284.424 377.959,285.187 377.795 C 285.950 377.632,286.850 377.368,287.187 377.208 C 287.524 377.048,288.520 376.581,289.400 376.169 C 301.678 370.421,308.235 359.571,311.257 340.000 C 311.979 335.324,311.977 309.131,311.254 304.400 C 308.895 288.962,306.745 283.866,299.211 275.847 C 291.086 267.201,275.985 262.982,263.200 265.787 " stroke="none" fill="#2b2c54" fill-rule="evenodd"></path><path id="path2" d="M142.200 42.641 C 138.261 43.594,131.620 48.584,130.001 51.807 C 129.671 52.463,129.293 53.090,129.160 53.200 C 129.027 53.310,128.576 54.390,128.159 55.600 C 126.963 59.066,126.977 155.508,128.174 158.600 C 135.599 177.780,161.723 175.752,166.150 155.651 C 167.130 151.204,167.139 61.405,166.160 57.532 C 164.665 51.617,157.856 43.600,154.326 43.600 C 154.015 43.600,153.543 43.383,153.278 43.118 C 152.790 42.630,143.837 42.245,142.200 42.641 M238.200 42.751 C 235.419 43.479,231.841 45.598,228.999 48.200 C 227.744 49.349,224.800 53.783,224.800 54.525 C 224.800 54.870,224.644 55.249,224.453 55.367 C 222.930 56.309,222.928 157.290,224.452 158.232 C 224.643 158.350,224.800 158.724,224.800 159.063 C 224.800 161.235,228.446 166.313,231.600 168.535 C 242.045 175.892,258.010 170.820,261.614 159.000 C 261.883 158.120,262.259 156.987,262.451 156.481 C 262.643 155.976,262.800 133.653,262.800 106.876 C 262.800 53.986,262.954 58.321,260.893 53.187 C 257.883 45.690,246.667 40.532,238.200 42.751 M152.450 43.404 C 158.939 45.643,163.741 50.694,165.387 57.014 C 166.119 59.825,166.321 150.993,165.605 155.400 C 162.421 174.998,135.512 177.154,128.723 158.354 L 127.800 155.800 127.684 109.400 C 127.608 79.269,127.712 61.808,127.980 59.600 C 129.381 48.054,141.903 39.765,152.450 43.404 M249.029 43.456 C 253.939 45.090,258.292 49.108,260.682 54.213 L 261.800 56.600 261.905 106.520 L 262.009 156.441 260.943 159.120 C 257.929 166.696,250.992 171.600,243.291 171.600 C 234.747 171.600,228.430 167.211,225.157 159.000 L 224.200 156.600 224.089 108.216 C 224.012 74.395,224.110 59.198,224.415 57.728 C 226.600 47.202,238.883 40.080,249.029 43.456 M190.939 88.306 C 190.685 88.468,192.513 88.600,195.001 88.600 C 197.488 88.600,199.316 88.468,199.062 88.306 C 198.808 88.144,196.980 88.012,195.000 88.012 C 193.020 88.012,191.192 88.144,190.939 88.306 M186.708 89.781 C 174.334 95.923,171.449 111.191,180.834 120.866 C 183.493 123.607,187.276 126.013,188.878 125.982 C 189.578 125.969,189.442 125.837,188.318 125.436 C 172.474 119.779,171.805 96.600,187.297 90.053 C 188.894 89.378,189.840 88.829,189.400 88.834 C 188.960 88.838,187.748 89.265,186.708 89.781 M202.134 89.779 C 216.468 95.672,218.358 116.996,205.151 123.825 C 204.477 124.174,204.017 124.550,204.128 124.661 C 204.346 124.879,205.989 123.898,207.581 122.600 C 216.806 115.079,217.205 101.082,208.422 93.151 C 206.116 91.069,202.035 88.794,200.636 88.809 C 200.176 88.815,200.850 89.251,202.134 89.779 M201.600 125.425 C 200.338 125.903,200.301 125.957,201.224 125.977 C 201.786 125.990,202.596 125.736,203.024 125.413 C 203.957 124.707,203.489 124.711,201.600 125.425 M190.200 126.400 C 190.336 126.620,191.022 126.782,191.724 126.760 C 192.943 126.722,192.955 126.706,192.000 126.400 C 190.564 125.940,189.916 125.940,190.200 126.400 M198.000 126.400 L 197.000 126.720 198.000 126.754 C 198.550 126.773,199.270 126.613,199.600 126.400 C 200.364 125.906,199.542 125.906,198.000 126.400 M70.814 259.174 C 70.019 260.660,70.261 384.986,71.060 385.651 C 71.746 386.221,87.113 386.709,89.051 386.223 C 91.319 385.654,91.200 387.451,91.200 353.771 L 91.200 322.800 123.393 322.800 L 155.586 322.800 155.693 353.835 L 155.800 384.871 156.770 385.657 C 157.982 386.637,174.704 386.658,175.681 385.680 C 176.520 384.839,176.440 259.323,175.600 258.792 C 174.441 258.059,156.978 258.303,156.349 259.061 C 155.898 259.605,155.780 264.721,155.690 287.864 L 155.579 316.005 123.490 315.902 L 91.400 315.800 91.200 287.761 C 91.036 264.805,90.900 259.603,90.451 259.061 C 89.542 257.966,71.405 258.070,70.814 259.174 M263.154 258.579 C 263.039 258.694,261.518 258.972,259.773 259.197 C 258.028 259.423,255.880 259.807,255.000 260.051 C 251.817 260.934,247.381 262.498,246.514 263.043 C 246.027 263.349,245.448 263.600,245.228 263.600 C 245.008 263.600,243.157 264.611,241.114 265.846 C 226.270 274.823,216.426 286.304,212.184 299.585 C 209.448 308.151,209.101 310.670,209.118 321.800 C 209.132 331.064,209.269 332.352,211.143 340.800 C 215.627 361.015,237.469 381.684,258.000 385.140 C 281.975 389.176,299.826 384.154,316.136 368.785 C 322.584 362.708,326.180 357.433,330.442 347.800 C 331.186 346.117,333.195 339.360,333.198 338.532 C 333.199 338.055,333.454 336.615,333.766 335.332 C 335.446 328.401,335.437 315.011,333.748 308.480 C 333.447 307.315,333.200 306.007,333.200 305.575 C 333.200 301.883,326.249 286.731,323.014 283.370 C 322.786 283.134,322.150 282.355,321.600 281.638 C 318.539 277.652,309.769 270.196,303.800 266.505 C 301.004 264.777,294.592 261.925,291.400 260.990 C 290.080 260.604,288.550 260.134,288.000 259.948 C 285.110 258.966,263.934 257.800,263.154 258.579 M89.986 259.574 C 90.260 260.086,90.400 269.744,90.400 288.131 C 90.400 313.097,90.464 315.939,91.033 316.157 C 91.860 316.474,154.940 316.474,155.767 316.157 C 156.336 315.939,156.400 313.088,156.400 288.034 C 156.400 266.344,156.511 260.001,156.901 259.468 C 157.351 258.852,158.281 258.795,166.189 258.892 L 174.977 259.000 175.485 260.000 C 176.311 261.628,176.031 384.683,175.200 385.208 C 174.199 385.841,157.387 385.707,156.851 385.062 C 156.533 384.678,156.376 375.575,156.302 353.362 L 156.200 322.200 124.200 322.090 C 106.600 322.029,91.795 322.078,91.300 322.198 L 90.400 322.415 90.400 353.528 C 90.400 377.193,90.285 384.755,89.920 385.120 C 89.575 385.465,86.922 385.600,80.510 385.600 L 71.580 385.600 71.190 384.574 C 70.657 383.173,70.657 261.227,71.190 259.826 L 71.580 258.800 80.576 258.800 C 89.061 258.800,89.595 258.844,89.986 259.574 M282.400 259.515 C 295.188 261.320,307.493 267.856,318.131 278.495 C 340.500 300.865,339.801 345.285,316.730 367.429 C 302.520 381.068,291.821 385.364,272.000 385.389 C 252.333 385.414,240.504 380.555,226.790 366.816 C 203.364 343.350,203.400 299.714,226.863 277.365 C 236.714 267.981,247.216 262.051,257.200 260.235 C 259.070 259.895,261.500 259.451,262.600 259.249 C 264.984 258.810,278.711 258.994,282.400 259.515 M263.400 265.062 C 247.453 267.529,235.034 284.495,231.971 308.000 C 227.112 345.286,240.042 374.465,263.539 379.240 C 283.817 383.361,301.891 373.591,308.753 354.800 C 309.470 352.835,309.926 350.984,311.215 344.800 C 312.963 336.420,312.962 307.890,311.213 299.600 C 311.005 298.610,310.525 296.360,310.147 294.600 C 307.281 281.239,296.868 269.745,284.200 265.961 C 281.445 265.138,266.959 264.512,263.400 265.062 M280.400 265.821 C 296.333 269.113,307.211 280.736,310.143 297.600 C 311.677 306.424,311.773 307.870,311.778 322.200 C 311.782 336.923,311.678 338.370,309.949 347.562 C 307.545 360.347,299.615 371.386,289.400 376.169 C 288.520 376.581,287.524 377.048,287.187 377.208 C 286.850 377.368,285.950 377.632,285.187 377.795 C 284.424 377.959,283.610 378.245,283.377 378.431 C 281.182 380.190,261.756 379.228,257.905 377.171 C 257.523 376.967,257.035 376.800,256.820 376.800 C 254.367 376.800,244.968 368.395,241.427 363.035 C 239.539 360.178,238.761 358.688,236.601 353.800 C 231.346 341.909,230.067 312.399,234.200 298.400 C 237.757 286.354,240.423 281.504,247.198 274.761 C 255.619 266.379,267.552 263.165,280.400 265.821 " stroke="none" fill="#39528d" fill-rule="evenodd"></path><path id="path3" d="M160.000 48.200 C 160.746 48.970,161.447 49.600,161.557 49.600 C 161.667 49.600,161.146 48.970,160.400 48.200 C 159.654 47.430,158.953 46.800,158.843 46.800 C 158.733 46.800,159.254 47.430,160.000 48.200 M127.793 107.000 C 127.793 132.300,127.841 142.591,127.900 129.869 C 127.959 117.147,127.959 96.447,127.900 83.869 C 127.841 71.291,127.793 81.700,127.793 107.000 M193.300 88.691 C 194.125 88.778,195.475 88.778,196.300 88.691 C 197.125 88.605,196.450 88.534,194.800 88.534 C 193.150 88.534,192.475 88.605,193.300 88.691 M181.178 94.300 L 179.800 95.800 181.300 94.422 C 182.125 93.663,182.800 92.988,182.800 92.922 C 182.800 92.616,182.462 92.904,181.178 94.300 M193.907 126.690 C 194.626 126.779,195.706 126.777,196.307 126.686 C 196.908 126.595,196.320 126.522,195.000 126.524 C 193.680 126.526,193.188 126.601,193.907 126.690 M256.175 166.100 L 255.000 167.400 256.300 166.225 C 257.015 165.579,257.600 164.994,257.600 164.925 C 257.600 164.616,257.270 164.888,256.175 166.100 M265.305 259.087 C 265.914 259.179,266.814 259.177,267.305 259.082 C 267.797 258.987,267.300 258.911,266.200 258.914 C 265.100 258.917,264.697 258.995,265.305 259.087 M276.705 259.083 C 277.202 259.179,277.922 259.175,278.305 259.075 C 278.687 258.975,278.280 258.896,277.400 258.901 C 276.520 258.905,276.207 258.987,276.705 259.083 M156.589 288.000 C 156.589 303.510,156.639 309.855,156.700 302.100 C 156.761 294.345,156.761 281.655,156.700 273.900 C 156.639 266.145,156.589 272.490,156.589 288.000 M70.995 322.200 C 70.995 356.300,71.042 370.309,71.100 353.331 C 71.158 336.354,71.158 308.454,71.100 291.331 C 71.042 274.209,70.995 288.100,70.995 322.200 M175.795 322.400 C 175.795 356.390,175.842 370.295,175.900 353.300 C 175.958 336.305,175.958 308.495,175.900 291.500 C 175.842 274.505,175.795 288.410,175.795 322.400 M268.300 264.698 C 270.115 264.772,273.085 264.772,274.900 264.698 C 276.715 264.623,275.230 264.563,271.600 264.563 C 267.970 264.563,266.485 264.623,268.300 264.698 M299.183 274.900 C 300.164 275.945,301.019 276.800,301.083 276.800 C 301.384 276.800,301.066 276.441,299.300 274.783 L 297.400 273.000 299.183 274.900 M226.000 278.200 C 224.361 279.850,223.110 281.200,223.220 281.200 C 223.330 281.200,224.761 279.850,226.400 278.200 C 228.039 276.550,229.290 275.200,229.180 275.200 C 229.070 275.200,227.639 276.550,226.000 278.200 M312.128 308.400 C 312.128 309.830,312.201 310.415,312.289 309.700 C 312.378 308.985,312.378 307.815,312.289 307.100 C 312.201 306.385,312.128 306.970,312.128 308.400 M209.728 315.600 C 209.728 317.030,209.801 317.615,209.889 316.900 C 209.978 316.185,209.978 315.015,209.889 314.300 C 209.801 313.585,209.728 314.170,209.728 315.600 M334.142 318.600 C 334.141 320.580,334.208 321.440,334.292 320.512 C 334.376 319.584,334.377 317.964,334.295 316.912 C 334.212 315.860,334.143 316.620,334.142 318.600 M209.301 321.400 C 209.305 322.280,209.387 322.593,209.483 322.095 C 209.579 321.598,209.575 320.878,209.475 320.495 C 209.375 320.113,209.296 320.520,209.301 321.400 M90.938 321.906 C 90.521 322.171,123.964 322.162,146.800 321.891 C 151.750 321.832,141.310 321.746,123.600 321.698 C 105.890 321.651,91.192 321.744,90.938 321.906 M334.140 325.600 C 334.140 327.470,334.209 328.235,334.293 327.300 C 334.377 326.365,334.377 324.835,334.293 323.900 C 334.209 322.965,334.140 323.730,334.140 325.600 M156.590 353.800 C 156.590 370.960,156.640 377.922,156.700 369.270 C 156.760 360.619,156.760 346.579,156.700 338.070 C 156.640 329.562,156.590 336.640,156.590 353.800 M209.731 327.800 C 209.733 329.340,209.805 329.921,209.892 329.091 C 209.979 328.261,209.977 327.001,209.889 326.291 C 209.800 325.581,209.729 326.260,209.731 327.800 M333.693 331.200 C 333.693 331.970,333.775 332.285,333.876 331.900 C 333.976 331.515,333.976 330.885,333.876 330.500 C 333.775 330.115,333.693 330.430,333.693 331.200 M312.124 336.200 C 312.126 337.520,312.201 338.012,312.290 337.293 C 312.379 336.574,312.377 335.494,312.286 334.893 C 312.195 334.292,312.122 334.880,312.124 336.200 M318.581 365.300 L 317.000 367.000 318.700 365.419 C 320.281 363.948,320.584 363.600,320.281 363.600 C 320.216 363.600,319.451 364.365,318.581 365.300 M226.600 366.800 C 227.683 367.900,228.660 368.800,228.770 368.800 C 228.880 368.800,228.083 367.900,227.000 366.800 C 225.917 365.700,224.940 364.800,224.830 364.800 C 224.720 364.800,225.517 365.700,226.600 366.800 M246.400 370.200 C 247.817 371.630,249.067 372.800,249.177 372.800 C 249.287 372.800,248.217 371.630,246.800 370.200 C 245.383 368.770,244.133 367.600,244.023 367.600 C 243.913 367.600,244.983 368.770,246.400 370.200 M314.975 368.900 L 313.800 370.200 315.100 369.025 C 315.815 368.379,316.400 367.794,316.400 367.725 C 316.400 367.416,316.070 367.688,314.975 368.900 " stroke="none" fill="#3c64a4" fill-rule="evenodd"></path><path id="path4" d="M142.000 43.413 C 135.630 45.393,130.636 50.321,128.795 56.443 C 128.021 59.018,128.000 60.340,128.000 107.305 L 128.000 155.523 128.937 158.294 C 133.611 172.109,150.717 175.918,160.419 165.304 C 166.195 158.983,166.002 161.042,165.985 106.000 C 165.970 56.647,166.032 58.162,163.859 53.417 C 161.758 48.827,152.591 41.676,150.933 43.334 C 150.815 43.451,151.469 43.749,152.385 43.996 C 153.301 44.243,154.624 44.793,155.325 45.219 C 156.026 45.645,156.870 46.110,157.200 46.252 C 159.609 47.290,163.550 53.032,164.587 57.014 C 165.334 59.881,165.527 151.758,164.794 155.645 C 161.218 174.617,135.563 176.321,129.346 158.000 C 128.210 154.651,128.184 59.947,129.318 56.277 C 131.706 48.549,137.976 43.863,146.800 43.212 L 150.600 42.932 147.200 42.893 C 145.295 42.871,143.008 43.100,142.000 43.413 M243.400 43.214 C 251.087 43.800,256.477 47.140,259.418 53.142 C 261.680 57.760,261.591 55.530,261.590 107.200 L 261.589 155.000 260.443 158.293 C 255.217 173.305,234.998 175.832,227.572 162.400 C 224.776 157.342,225.000 162.189,225.000 106.800 L 225.000 57.000 226.481 53.971 C 228.239 50.376,231.473 46.965,234.645 45.359 C 235.831 44.759,236.729 44.196,236.641 44.107 C 235.538 43.005,227.755 49.891,226.156 53.383 C 223.966 58.168,224.030 56.589,224.014 106.167 C 223.999 153.880,224.043 155.276,225.699 159.600 C 231.991 176.035,255.102 175.299,260.947 158.477 L 262.016 155.400 261.908 106.200 L 261.800 57.000 260.364 54.000 C 256.907 46.780,250.562 42.706,243.027 42.870 L 239.800 42.940 243.400 43.214 M237.800 43.600 L 237.000 43.944 237.800 43.966 C 238.240 43.978,238.870 43.813,239.200 43.600 C 239.995 43.086,238.996 43.086,237.800 43.600 M192.915 89.096 C 194.188 89.176,196.168 89.175,197.315 89.094 C 198.462 89.014,197.420 88.949,195.000 88.950 C 192.580 88.951,191.642 89.016,192.915 89.096 M186.893 90.397 C 177.205 94.880,173.296 106.631,178.229 116.442 C 180.113 120.189,186.854 125.659,189.489 125.578 C 189.880 125.566,189.326 125.202,188.258 124.768 C 175.956 119.777,172.701 103.763,182.082 94.382 C 184.128 92.336,185.719 91.342,189.600 89.682 C 190.150 89.447,190.330 89.250,190.000 89.245 C 189.670 89.241,188.272 89.759,186.893 90.397 M200.822 89.780 C 216.657 95.614,217.824 117.954,202.630 124.378 C 201.074 125.036,200.110 125.580,200.489 125.587 C 203.273 125.639,210.094 120.094,211.950 116.270 C 215.592 108.763,214.181 99.819,208.451 94.089 C 206.474 92.112,201.459 89.178,200.142 89.228 C 199.722 89.244,200.017 89.484,200.822 89.780 M191.000 125.980 C 191.761 126.326,194.717 126.564,194.367 126.251 C 194.275 126.169,193.300 125.993,192.200 125.859 C 190.854 125.695,190.461 125.735,191.000 125.980 M196.800 126.000 L 195.400 126.295 196.800 126.319 C 197.570 126.333,198.560 126.189,199.000 126.000 L 199.800 125.656 199.000 125.681 C 198.560 125.694,197.570 125.838,196.800 126.000 M71.900 259.232 C 70.748 259.903,70.820 384.569,71.974 385.186 C 72.955 385.711,88.773 385.731,89.600 385.209 C 90.123 384.878,90.214 380.838,90.307 353.534 C 90.390 329.275,90.525 322.168,90.907 321.925 C 91.976 321.246,155.484 321.542,156.171 322.229 C 156.732 322.789,156.800 326.220,156.800 353.986 C 156.800 382.002,156.863 385.139,157.433 385.357 C 158.536 385.781,174.000 385.628,174.826 385.186 C 175.586 384.779,175.600 383.656,175.600 322.409 L 175.600 260.045 174.711 259.423 C 173.559 258.616,158.071 258.489,157.280 259.280 C 156.916 259.644,156.800 266.541,156.800 287.872 L 156.800 315.985 155.900 316.202 C 155.405 316.322,140.510 316.371,122.800 316.310 L 90.600 316.200 90.400 288.068 C 90.206 260.803,90.176 259.918,89.424 259.368 C 88.477 258.676,73.060 258.557,71.900 259.232 M263.592 259.392 C 234.611 262.548,212.108 286.004,209.984 315.270 C 207.981 342.877,218.125 363.552,240.543 377.554 C 258.648 388.861,286.793 388.404,305.200 376.503 C 325.991 363.061,335.290 343.736,333.927 316.800 C 332.094 280.575,301.134 255.305,263.592 259.392 M89.503 287.762 C 89.576 307.609,89.735 315.881,90.052 316.262 C 90.419 316.705,96.336 316.800,123.400 316.800 C 150.464 316.800,156.381 316.705,156.748 316.262 C 157.065 315.881,157.224 307.609,157.297 287.762 L 157.400 259.800 165.799 259.692 C 173.343 259.594,174.249 259.653,174.699 260.268 C 175.434 261.272,175.434 383.528,174.699 384.532 C 174.249 385.147,173.343 385.206,165.799 385.108 L 157.400 385.000 157.200 353.600 C 157.090 336.330,156.854 321.975,156.676 321.700 C 156.130 320.856,91.075 320.982,90.229 321.829 C 89.668 322.389,89.600 325.820,89.600 353.586 C 89.600 381.602,89.537 384.739,88.967 384.957 C 87.711 385.439,72.587 385.227,72.080 384.720 C 71.364 384.004,71.384 260.156,72.100 259.861 C 72.375 259.748,76.380 259.688,81.000 259.728 L 89.400 259.800 89.503 287.762 M285.200 260.610 C 289.423 261.587,294.233 263.102,296.711 264.235 C 297.872 264.766,298.904 265.200,299.004 265.200 C 299.104 265.200,300.362 265.920,301.800 266.800 C 303.238 267.680,304.518 268.400,304.644 268.400 C 304.970 268.400,308.212 270.885,312.549 274.460 C 327.392 286.693,334.054 302.534,333.467 324.200 C 332.839 347.391,323.467 364.277,304.405 376.563 C 286.948 387.815,259.157 388.158,241.319 377.342 C 225.591 367.805,217.135 356.745,212.003 339.000 C 208.729 327.684,210.029 307.237,214.710 296.400 C 216.652 291.905,217.446 290.393,219.438 287.400 C 229.256 272.651,245.718 262.095,262.200 259.977 C 266.572 259.416,281.857 259.836,285.200 260.610 M263.000 264.492 C 242.254 269.554,230.427 290.421,230.406 322.000 C 230.385 353.988,242.237 375.257,262.608 379.789 C 283.663 384.473,303.528 373.521,309.796 353.774 C 314.676 338.398,314.570 304.747,309.596 290.122 C 305.478 278.016,295.188 268.105,283.800 265.278 C 282.920 265.060,281.342 264.683,280.294 264.441 C 277.988 263.908,265.239 263.945,263.000 264.492 M280.200 264.992 C 285.239 265.982,286.554 266.405,290.200 268.212 C 300.468 273.299,308.800 284.748,310.816 296.537 C 314.026 315.320,313.182 342.105,308.984 354.609 C 302.745 373.196,283.585 383.657,263.529 379.427 C 246.444 375.823,235.629 361.644,231.932 338.000 C 231.193 333.274,231.205 311.552,231.949 306.400 C 236.280 276.431,255.307 260.103,280.200 264.992 " stroke="none" fill="#4464ac" fill-rule="evenodd"></path></g></svg>
